<svg xmlns="http://www.w3.org/2000/svg" viewBox="0 0 1600 900">
  <rect width="1600" height="900" fill="#0b3d91"/>
  <rect y="580" width="1600" height="320" fill="#0f5ac2"/>
  <circle cx="1320" cy="240" r="140" fill="#00a8ff" opacity="0.35"/>
  <circle cx="240" cy="180" r="110" fill="#ffffff" opacity="0.18"/>
  <rect x="180" y="220" width="450" height="300" rx="28" fill="#f7fbff" opacity="0.95"/>
  <rect x="220" y="260" width="180" height="80" rx="16" fill="#0b3d91"/>
  <rect x="420" y="260" width="150" height="80" rx="16" fill="#00a8ff"/>
  <rect x="220" y="370" width="350" height="90" rx="18" fill="#dcefff"/>
  <path d="M940 250c60-80 180-120 280-80 70 28 120 92 160 150" stroke="#ffffff" stroke-width="22" fill="none" stroke-linecap="round"/>
  <path d="M900 520c80-110 220-150 350-110 100 30 190 104 250 190" stroke="#ffdd78" stroke-width="22" fill="none" stroke-linecap="round"/>
  <circle cx="1160" cy="350" r="80" fill="#ffffff" opacity="0.95"/>
  <circle cx="1160" cy="350" r="55" fill="#0b3d91"/>
  <circle cx="1160" cy="350" r="22" fill="#ffffff"/>
  <rect x="1020" y="470" width="300" height="170" rx="24" fill="#ffffff" opacity="0.95"/>
  <rect x="1048" y="500" width="120" height="24" rx="12" fill="#0b3d91"/>
  <rect x="1048" y="540" width="220" height="20" rx="10" fill="#dcefff"/>
  <rect x="1048" y="572" width="190" height="20" rx="10" fill="#dcefff"/>
</svg>